<svg width="32" height="29" viewBox="0 0 32 29" fill="none" xmlns="http://www.w3.org/2000/svg">
<g id="OBJECTS" clip-path="url(#clip0_1_12366)">
<path id="Vector" d="M24.41 23.8475C29.5187 18.7388 29.5187 10.456 24.41 5.3473C19.3013 0.238599 11.0184 0.238599 5.90972 5.3473C0.801025 10.456 0.801025 18.7388 5.90972 23.8475C11.0184 28.9562 19.3013 28.9562 24.41 23.8475Z" fill="#F76641"/>
<path id="Vector_2" d="M28.2247 14.0051C28.1964 13.3679 28.1215 12.7336 28.0006 12.1074C16.1141 13.9929 8.91918 9.94128 4.49202 7.03223C3.3151 8.68896 2.5408 10.5973 2.23065 12.6058C1.92051 14.6142 2.08306 16.6672 2.7054 18.6018C16.5703 20.8971 24.5364 16.8596 28.2247 14.0051Z" fill="white"/>
<path id="Vector_3" d="M28.0043 14.9941C28.0043 14.9941 22.2185 22.5565 3.82953 21.1332C4.43807 22.1876 5.19095 23.1518 6.06633 23.9979C11.0729 23.687 23.4379 22.1911 28.0043 14.9941Z" fill="white"/>
<path id="Vector_4" d="M31.1649 11.6531C31.1124 11.1545 30.0364 10.888 29.8305 10.8133C29.6245 10.7386 29.0936 10.1027 26.6812 10.3046C25.8737 10.3732 23.5339 11.1121 20.5764 12.0347L13.4703 9.2407L12.0168 7.51465L11.3446 7.57319L11.5646 9.45469L17.1304 13.1107C15.2024 13.7042 13.1736 14.3098 11.2174 14.8327L7.1435 12.0064L6.01703 12.3133L9.23091 16.4053C13.0262 16.3649 23.7398 16.1005 30.4482 12.719C31.1669 12.285 31.181 11.8126 31.1649 11.6531Z" fill="#343440"/>
</g>
<defs>
<clipPath id="clip0_1_12366">
<rect width="31.1111" height="28" fill="white" transform="translate(0.478943 0.572388)"/>
</clipPath>
</defs>
</svg>
